

<svg version="1.0" xmlns="http://www.w3.org/2000/svg"
 width="1275.000000pt" height="1651.000000pt" viewBox="0 0 1275.000000 1651.000000"
 preserveAspectRatio="xMidYMid meet">

<g transform="translate(0.000000,1651.000000) scale(0.100000,-0.100000)"
fill="#000000" stroke="none">
<path d="M1209 15284 c-18 -21 -17 -87 0 -108 9 -11 26 -16 45 -14 27 3 31 7
34 36 3 28 0 32 -20 32 -20 -1 -21 -2 -5 -11 21 -13 22 -35 1 -43 -21 -8 -33
0 -44 30 -19 50 24 96 58 62 7 -7 12 -8 12 -2 0 33 -58 45 -81 18z"/>
<path d="M1452 15228 l1 -73 6 55 6 55 12 -32 c7 -18 15 -33 18 -33 3 0 11 15
18 33 l12 32 6 -55 6 -55 1 73 c2 79 -10 93 -29 35 l-12 -37 -14 37 c-9 20
-19 37 -24 37 -5 0 -8 -33 -7 -72z"/>
<path d="M1712 15291 c-26 -16 -9 -53 28 -66 38 -13 45 -32 18 -48 -13 -9 -21
-7 -36 6 -21 19 -38 11 -21 -10 15 -18 74 -17 89 2 18 22 5 44 -35 61 -40 16
-47 44 -12 44 13 0 28 -5 35 -12 9 -9 12 -8 12 4 0 25 -50 37 -78 19z"/>
<path d="M1335 15259 c-4 -6 -4 -13 0 -17 3 -3 10 0 15 7 8 14 40 9 40 -7 0
-4 -15 -12 -32 -17 -26 -8 -33 -15 -33 -35 0 -24 3 -25 55 -26 30 -1 49 1 43
3 -7 3 -13 20 -13 38 0 18 -3 40 -6 49 -7 18 -59 22 -69 5z m55 -58 c0 -14
-28 -33 -40 -26 -20 12 -10 35 15 35 14 0 25 -4 25 -9z"/>
<path d="M1578 15245 c-8 -18 -9 -35 -2 -53 8 -22 16 -27 43 -27 20 0 36 6 39
13 3 11 0 11 -16 1 -17 -10 -23 -10 -36 0 -26 22 -19 31 24 31 22 0 40 5 40
11 0 51 -71 69 -92 24z m62 0 c11 -13 8 -15 -20 -15 -28 0 -31 2 -20 15 7 8
16 15 20 15 4 0 13 -7 20 -15z"/>
<path d="M1837 15264 c-18 -18 -5 -43 28 -54 19 -6 35 -16 35 -21 0 -17 -32
-23 -52 -10 -16 10 -19 10 -16 -1 3 -7 19 -13 39 -13 28 0 35 4 37 23 3 18 -3
25 -27 33 -17 6 -31 17 -31 25 0 17 31 18 49 2 11 -11 13 -10 9 2 -5 16 -59
26 -71 14z"/>
</g>
</svg>
